<?xml version="1.0" standalone="no"?>
<svg viewBox="0 0 200 200" xmlns="http://www.w3.org/2000/svg">
  <path fill="#FFC107" d="M41.3,-60.6C54.2,-55.9,65.8,-45.7,71.1,-32.9C76.3,-20.1,75.1,-4.7,70.3,8.3C65.6,21.3,57.4,31.9,48.6,42.2C39.9,52.6,30.6,62.6,17.7,71.3C4.9,80.1,-11.5,87.5,-19.8,79.6C-28.2,71.6,-28.5,48.3,-37.1,34.4C-45.7,20.4,-62.7,15.9,-69.1,6.6C-75.6,-2.7,-71.6,-16.8,-66.8,-31.9C-62.1,-47.1,-56.7,-63.4,-45.4,-68.8C-34.1,-74.3,-17.1,-68.8,-1.4,-66.6C14.2,-64.4,28.4,-65.3,41.3,-60.6Z" transform="translate(100 100)" />
</svg>
