<svg id="visual" viewBox="0 0 600 900" width="600" height="900" xmlns="http://www.w3.org/2000/svg" xmlns:xlink="http://www.w3.org/1999/xlink" version="1.1"><rect x="0" y="0" width="600" height="900" fill="#121212"></rect><defs><linearGradient id="grad1_0" x1="0%" y1="0%" x2="100%" y2="100%"><stop offset="30%" stop-color="#d89d00" stop-opacity="1"></stop><stop offset="70%" stop-color="#d89d00" stop-opacity="1"></stop></linearGradient></defs><defs><linearGradient id="grad1_1" x1="0%" y1="0%" x2="100%" y2="100%"><stop offset="30%" stop-color="#d89d00" stop-opacity="1"></stop><stop offset="70%" stop-color="#ad7e13" stop-opacity="1"></stop></linearGradient></defs><defs><linearGradient id="grad1_2" x1="0%" y1="0%" x2="100%" y2="100%"><stop offset="30%" stop-color="#836119" stop-opacity="1"></stop><stop offset="70%" stop-color="#ad7e13" stop-opacity="1"></stop></linearGradient></defs><defs><linearGradient id="grad1_3" x1="0%" y1="0%" x2="100%" y2="100%"><stop offset="30%" stop-color="#836119" stop-opacity="1"></stop><stop offset="70%" stop-color="#5b451a" stop-opacity="1"></stop></linearGradient></defs><defs><linearGradient id="grad1_4" x1="0%" y1="0%" x2="100%" y2="100%"><stop offset="30%" stop-color="#362a17" stop-opacity="1"></stop><stop offset="70%" stop-color="#5b451a" stop-opacity="1"></stop></linearGradient></defs><defs><linearGradient id="grad1_5" x1="0%" y1="0%" x2="100%" y2="100%"><stop offset="30%" stop-color="#362a17" stop-opacity="1"></stop><stop offset="70%" stop-color="#121212" stop-opacity="1"></stop></linearGradient></defs><defs><linearGradient id="grad2_0" x1="0%" y1="0%" x2="100%" y2="100%"><stop offset="30%" stop-color="#d89d00" stop-opacity="1"></stop><stop offset="70%" stop-color="#d89d00" stop-opacity="1"></stop></linearGradient></defs><defs><linearGradient id="grad2_1" x1="0%" y1="0%" x2="100%" y2="100%"><stop offset="30%" stop-color="#ad7e13" stop-opacity="1"></stop><stop offset="70%" stop-color="#d89d00" stop-opacity="1"></stop></linearGradient></defs><defs><linearGradient id="grad2_2" x1="0%" y1="0%" x2="100%" y2="100%"><stop offset="30%" stop-color="#ad7e13" stop-opacity="1"></stop><stop offset="70%" stop-color="#836119" stop-opacity="1"></stop></linearGradient></defs><defs><linearGradient id="grad2_3" x1="0%" y1="0%" x2="100%" y2="100%"><stop offset="30%" stop-color="#5b451a" stop-opacity="1"></stop><stop offset="70%" stop-color="#836119" stop-opacity="1"></stop></linearGradient></defs><defs><linearGradient id="grad2_4" x1="0%" y1="0%" x2="100%" y2="100%"><stop offset="30%" stop-color="#5b451a" stop-opacity="1"></stop><stop offset="70%" stop-color="#362a17" stop-opacity="1"></stop></linearGradient></defs><defs><linearGradient id="grad2_5" x1="0%" y1="0%" x2="100%" y2="100%"><stop offset="30%" stop-color="#121212" stop-opacity="1"></stop><stop offset="70%" stop-color="#362a17" stop-opacity="1"></stop></linearGradient></defs><g transform="translate(600, 0)"><path d="M0 459.7C-93.8 455.4 -187.6 451.1 -229.9 398.1C-272.2 345.1 -263 243.5 -292.7 169C-322.4 94.5 -391.1 47.3 -459.7 0L0 0Z" fill="#241e15"></path><path d="M0 383.1C-78.1 379.5 -156.3 375.9 -191.5 331.8C-226.8 287.6 -219.2 202.9 -243.9 140.8C-268.7 78.8 -325.9 39.4 -383.1 0L0 0Z" fill="#483719"></path><path d="M0 306.5C-62.5 303.6 -125 300.7 -153.2 265.4C-181.4 230.1 -175.3 162.3 -195.1 112.7C-215 63 -260.7 31.5 -306.5 0L0 0Z" fill="#6f521a"></path><path d="M0 229.9C-46.9 227.7 -93.8 225.6 -114.9 199.1C-136.1 172.6 -131.5 121.7 -146.4 84.5C-161.2 47.3 -195.5 23.6 -229.9 0L0 0Z" fill="#976f17"></path><path d="M0 153.2C-31.3 151.8 -62.5 150.4 -76.6 132.7C-90.7 115 -87.7 81.2 -97.6 56.3C-107.5 31.5 -130.4 15.8 -153.2 0L0 0Z" fill="#c28d0c"></path><path d="M0 76.6C-15.6 75.9 -31.3 75.2 -38.3 66.4C-45.4 57.5 -43.8 40.6 -48.8 28.2C-53.7 15.8 -65.2 7.9 -76.6 0L0 0Z" fill="#d89d00"></path></g><g transform="translate(0, 900)"><path d="M0 -459.7C82.8 -449.1 165.6 -438.4 229.9 -398.1C294.1 -357.8 339.8 -287.8 375 -216.5C410.2 -145.2 435 -72.6 459.7 0L0 0Z" fill="#241e15"></path><path d="M0 -383.1C69 -374.2 138 -365.4 191.5 -331.8C245.1 -298.2 283.1 -239.8 312.5 -180.4C341.8 -121 362.5 -60.5 383.1 0L0 0Z" fill="#483719"></path><path d="M0 -306.5C55.2 -299.4 110.4 -292.3 153.2 -265.4C196.1 -238.5 226.5 -191.9 250 -144.3C273.5 -96.8 290 -48.4 306.5 0L0 0Z" fill="#6f521a"></path><path d="M0 -229.9C41.4 -224.5 82.8 -219.2 114.9 -199.1C147 -178.9 169.9 -143.9 187.5 -108.3C205.1 -72.6 217.5 -36.3 229.9 0L0 0Z" fill="#976f17"></path><path d="M0 -153.2C27.6 -149.7 55.2 -146.1 76.6 -132.7C98 -119.3 113.3 -95.9 125 -72.2C136.7 -48.4 145 -24.2 153.2 0L0 0Z" fill="#c28d0c"></path><path d="M0 -76.6C13.8 -74.8 27.6 -73.1 38.3 -66.4C49 -59.6 56.6 -48 62.5 -36.1C68.4 -24.2 72.5 -12.1 76.6 0L0 0Z" fill="#d89d00"></path></g></svg>