<svg id="visual" viewBox="0 0 960 540" width="960" height="540" xmlns="http://www.w3.org/2000/svg" xmlns:xlink="http://www.w3.org/1999/xlink" version="1.1"><path d="M275 0L273.5 12.8C272 25.7 269 51.3 278.7 77C288.3 102.7 310.7 128.3 309.2 154C307.7 179.7 282.3 205.3 273 231.2C263.7 257 270.3 283 273.8 308.8C277.3 334.7 277.7 360.3 294.5 386C311.3 411.7 344.7 437.3 357.8 463C371 488.7 364 514.3 360.5 527.2L357 540L0 540L0 527.2C0 514.3 0 488.7 0 463C0 437.3 0 411.7 0 386C0 360.3 0 334.7 0 308.8C0 283 0 257 0 231.2C0 205.3 0 179.7 0 154C0 128.3 0 102.7 0 77C0 51.3 0 25.7 0 12.8L0 0Z" fill="#ffc107"></path><path d="M227 0L233.7 12.8C240.3 25.7 253.7 51.3 255 77C256.3 102.7 245.7 128.3 256.3 154C267 179.7 299 205.3 301.3 231.2C303.7 257 276.3 283 261.3 308.8C246.3 334.7 243.7 360.3 238.3 386C233 411.7 225 437.3 219.7 463C214.3 488.7 211.7 514.3 210.3 527.2L209 540L0 540L0 527.2C0 514.3 0 488.7 0 463C0 437.3 0 411.7 0 386C0 360.3 0 334.7 0 308.8C0 283 0 257 0 231.2C0 205.3 0 179.7 0 154C0 128.3 0 102.7 0 77C0 51.3 0 25.7 0 12.8L0 0Z" fill="#f6b805"></path><path d="M214 0L208.5 12.8C203 25.7 192 51.3 186.5 77C181 102.7 181 128.3 191.5 154C202 179.7 223 205.3 228.5 231.2C234 257 224 283 222.2 308.8C220.3 334.7 226.7 360.3 224.2 386C221.7 411.7 210.3 437.3 199 463C187.7 488.7 176.3 514.3 170.7 527.2L165 540L0 540L0 527.2C0 514.3 0 488.7 0 463C0 437.3 0 411.7 0 386C0 360.3 0 334.7 0 308.8C0 283 0 257 0 231.2C0 205.3 0 179.7 0 154C0 128.3 0 102.7 0 77C0 51.3 0 25.7 0 12.8L0 0Z" fill="#ecaf03"></path><path d="M154 0L145 12.8C136 25.7 118 51.3 118.2 77C118.3 102.7 136.7 128.3 151.8 154C167 179.7 179 205.3 183.7 231.2C188.3 257 185.7 283 172 308.8C158.3 334.7 133.7 360.3 120.3 386C107 411.7 105 437.3 116 463C127 488.7 151 514.3 163 527.2L175 540L0 540L0 527.2C0 514.3 0 488.7 0 463C0 437.3 0 411.7 0 386C0 360.3 0 334.7 0 308.8C0 283 0 257 0 231.2C0 205.3 0 179.7 0 154C0 128.3 0 102.7 0 77C0 51.3 0 25.7 0 12.8L0 0Z" fill="#e2a601"></path><path d="M76 0L75.8 12.8C75.7 25.7 75.3 51.3 71.2 77C67 102.7 59 128.3 57 154C55 179.7 59 205.3 64 231.2C69 257 75 283 72.8 308.8C70.7 334.7 60.3 360.3 66.7 386C73 411.7 96 437.3 97.5 463C99 488.7 79 514.3 69 527.2L59 540L0 540L0 527.2C0 514.3 0 488.7 0 463C0 437.3 0 411.7 0 386C0 360.3 0 334.7 0 308.8C0 283 0 257 0 231.2C0 205.3 0 179.7 0 154C0 128.3 0 102.7 0 77C0 51.3 0 25.7 0 12.8L0 0Z" fill="#d89d00"></path></svg>