<svg id="visual" viewBox="0 0 600 900" width="600" height="900" xmlns="http://www.w3.org/2000/svg" xmlns:xlink="http://www.w3.org/1999/xlink" version="1.1"><path d="M0 642L14.3 643.5C28.7 645 57.3 648 85.8 639C114.3 630 142.7 609 171.2 610.3C199.7 611.7 228.3 635.3 257 644C285.7 652.7 314.3 646.3 343 643.2C371.7 640 400.3 640 428.8 624.2C457.3 608.3 485.7 576.7 514.2 564.2C542.7 551.7 571.3 558.3 585.7 561.7L600 565L600 901L585.7 901C571.3 901 542.7 901 514.2 901C485.7 901 457.3 901 428.8 901C400.3 901 371.7 901 343 901C314.3 901 285.7 901 257 901C228.3 901 199.7 901 171.2 901C142.7 901 114.3 901 85.8 901C57.3 901 28.7 901 14.3 901L0 901Z" fill="#ffc107"></path><path d="M0 687L14.3 680.8C28.7 674.7 57.3 662.3 85.8 661.2C114.3 660 142.7 670 171.2 660C199.7 650 228.3 620 257 617.8C285.7 615.7 314.3 641.3 343 655.3C371.7 669.3 400.3 671.7 428.8 676.7C457.3 681.7 485.7 689.3 514.2 694.3C542.7 699.3 571.3 701.7 585.7 702.8L600 704L600 901L585.7 901C571.3 901 542.7 901 514.2 901C485.7 901 457.3 901 428.8 901C400.3 901 371.7 901 343 901C314.3 901 285.7 901 257 901C228.3 901 199.7 901 171.2 901C142.7 901 114.3 901 85.8 901C57.3 901 28.7 901 14.3 901L0 901Z" fill="#f6b805"></path><path d="M0 699L14.3 704.3C28.7 709.7 57.3 720.3 85.8 725.5C114.3 730.7 142.7 730.3 171.2 720.5C199.7 710.7 228.3 691.3 257 686.2C285.7 681 314.3 690 343 691.5C371.7 693 400.3 687 428.8 689.3C457.3 691.7 485.7 702.3 514.2 713.2C542.7 724 571.3 735 585.7 740.5L600 746L600 901L585.7 901C571.3 901 542.7 901 514.2 901C485.7 901 457.3 901 428.8 901C400.3 901 371.7 901 343 901C314.3 901 285.7 901 257 901C228.3 901 199.7 901 171.2 901C142.7 901 114.3 901 85.8 901C57.3 901 28.7 901 14.3 901L0 901Z" fill="#ecaf03"></path><path d="M0 756L14.3 764.3C28.7 772.7 57.3 789.3 85.8 789.2C114.3 789 142.7 772 171.2 757.8C199.7 743.7 228.3 732.3 257 727.8C285.7 723.3 314.3 725.7 343 738.5C371.7 751.3 400.3 774.7 428.8 787.2C457.3 799.7 485.7 801.3 514.2 791C542.7 780.7 571.3 758.3 585.7 747.2L600 736L600 901L585.7 901C571.3 901 542.7 901 514.2 901C485.7 901 457.3 901 428.8 901C400.3 901 371.7 901 343 901C314.3 901 285.7 901 257 901C228.3 901 199.7 901 171.2 901C142.7 901 114.3 901 85.8 901C57.3 901 28.7 901 14.3 901L0 901Z" fill="#e2a601"></path><path d="M0 829L14.3 829C28.7 829 57.3 829 85.8 832.8C114.3 836.7 142.7 844.3 171.2 846.3C199.7 848.3 228.3 844.7 257 840C285.7 835.3 314.3 829.7 343 831.7C371.7 833.7 400.3 843.3 428.8 837.5C457.3 831.7 485.7 810.3 514.2 809C542.7 807.7 571.3 826.3 585.7 835.7L600 845L600 901L585.7 901C571.3 901 542.7 901 514.2 901C485.7 901 457.3 901 428.8 901C400.3 901 371.7 901 343 901C314.3 901 285.7 901 257 901C228.3 901 199.7 901 171.2 901C142.7 901 114.3 901 85.8 901C57.3 901 28.7 901 14.3 901L0 901Z" fill="#d89d00"></path></svg>